<?xml version="1.0" encoding="UTF-8" standalone="no"?>
<!-- Created with Inkscape (http://www.inkscape.org/) -->

<svg
   width="75.747223mm"
   height="64.523903mm"
   viewBox="0 0 75.747223 64.523903"
   version="1.1"
   id="svg1"
   xmlns:inkscape="http://www.inkscape.org/namespaces/inkscape"
   xmlns:sodipodi="http://sodipodi.sourceforge.net/DTD/sodipodi-0.dtd"
   xmlns="http://www.w3.org/2000/svg"
   xmlns:svg="http://www.w3.org/2000/svg">
  <sodipodi:namedview
     id="namedview1"
     pagecolor="#505050"
     bordercolor="#eeeeee"
     borderopacity="1"
     inkscape:showpageshadow="0"
     inkscape:pageopacity="0"
     inkscape:pagecheckerboard="0"
     inkscape:deskcolor="#505050"
     inkscape:document-units="mm"
     showguides="true">
    <sodipodi:guide
       position="12.486039,296.13472"
       orientation="0,-1"
       id="guide2"
       inkscape:locked="false" />
    <sodipodi:guide
       position="5.8533799,233.25122"
       orientation="0,-1"
       id="guide3"
       inkscape:locked="false" />
    <sodipodi:guide
       position="54.372478,258.67451"
       orientation="1,0"
       id="guide4"
       inkscape:locked="false" />
    <sodipodi:guide
       position="1.5900559,296.51851"
       orientation="1,0"
       id="guide5"
       inkscape:locked="false" />
  </sodipodi:namedview>
  <defs
     id="defs1">
    <rect
       x="58.374851"
       y="336.85159"
       width="278.47675"
       height="415.32272"
       id="rect1-4" />
  </defs>
  <g
     inkscape:label="Ebene 1"
     inkscape:groupmode="layer"
     id="layer1"
     transform="translate(-25.746697,-109.02218)">
    <path
       style="color:#000000;-inkscape-font-specification:Poppins;fill:#ffffff;stroke-width:0.264583;-inkscape-stroke:none"
       d="m 79.93414,109.08843 c -4.094096,0 -7.736514,0.72234 -10.9275,2.16731 -1.549562,0.71518 -2.92843,1.57883 -4.138764,2.58899 2.448084,1.24273 4.614381,2.74621 6.492111,4.51652 2.070692,-1.48059 4.654171,-2.2288 7.761282,-2.2288 3.672644,0 6.622952,0.9334 8.850622,2.79982 2.22767,1.80623 3.492013,3.91329 3.79305,6.32158 h 9.030969 c -0.48165,-4.87679 -2.618948,-8.79021 -6.412006,-11.74037 -3.732853,-2.95015 -8.54945,-4.42505 -14.449764,-4.42505 z m 0.16278,28.00914 c 0.148603,1.41629 0.22996,2.87445 0.22996,4.3832 0,1.13256 -0.05734,2.22942 -0.141076,3.30988 2.415249,0.68914 4.419251,1.34266 5.979996,1.9575 1.986841,0.78269 3.642061,1.92665 4.966621,3.43183 1.324562,1.50518 1.98696,3.46164 1.98696,5.86993 0,3.07057 -1.143956,5.59926 -3.431831,7.5861 -2.22767,1.92663 -5.29785,2.89026 -9.211326,2.89026 -3.679174,0 -6.573875,-0.80979 -8.697143,-2.41432 -1.892559,1.85295 -4.088116,3.43308 -6.588228,4.73924 1.214094,0.93643 2.571935,1.76013 4.086572,2.46135 3.3114,1.44497 7.044497,2.16731 11.198799,2.16731 4.334925,0 8.097731,-0.84272 11.288717,-2.52853 3.190987,-1.6858 5.599285,-3.88355 7.224882,-6.59288 1.625597,-2.70932 2.438097,-5.59918 2.438097,-8.66975 0,-3.97368 -0.90266,-7.10432 -2.708882,-9.39219 -1.806218,-2.34809 -3.973737,-4.06428 -6.502445,-5.14801 -2.528705,-1.14394 -5.870408,-2.28789 -10.02471,-3.43183 -0.784336,-0.22017 -1.389251,-0.4115 -2.094963,-0.61909 z"
       id="path5"
       sodipodi:nodetypes="scccsccccscscssscscccsssscccc" />
    <path
       style="color:#000000;-inkscape-font-specification:Poppins;fill:#000000;fill-opacity:0.197615;stroke-width:0.264583;-inkscape-stroke:none"
       d="m 79.933915,109.02219 c -4.101872,0 -7.753701,0.72415 -10.954371,2.17351 h -5.29e-4 c -1.554401,0.71742 -2.938685,1.58418 -4.153752,2.59829 l -0.077,0.0641 0.0894,0.0455 c 2.442925,1.24011 4.604271,2.73995 6.477125,4.50566 l 0.03927,0.0377 0.04444,-0.032 c 2.058093,-1.47159 4.626038,-2.2164 7.722526,-2.2164 3.661433,0 6.594297,0.92939 8.808249,2.78432 l 5.29e-4,5.3e-4 5.29e-4,5.3e-4 c 2.217632,1.79808 3.469965,3.88779 3.768762,6.27817 l 0.0072,0.0579 h 9.162747 l -0.007,-0.0724 c -0.48317,-4.89213 -2.631257,-8.82573 -6.436817,-11.78584 l -5.29e-4,-5.3e-4 C 90.67843,110.50084 85.844948,109.0222 79.933915,109.0222 Z m 0,0.13229 c 5.889284,0 10.689392,1.47146 14.408939,4.4111 h 5.29e-4 c 3.760822,2.92509 5.881917,6.79561 6.376357,11.62203 h -8.902818 c -0.316582,-2.40103 -1.583571,-4.50677 -3.802354,-6.30607 l -0.0011,-5.3e-4 c -2.24128,-1.87743 -5.209114,-2.81482 -8.892482,-2.81482 -3.096069,0 -5.677604,0.74475 -7.753532,2.21382 -1.849631,-1.73699 -3.978543,-3.21534 -6.376871,-4.44314 1.187166,-0.97915 2.530903,-1.82274 4.043164,-2.52077 l 5.29e-4,-5.3e-4 c 3.181154,-1.44041 6.813536,-2.16111 10.899592,-2.16111 z m -19.43654,10.25312 -0.02894,0.0636 z m 19.523354,17.59841 0.01035,0.0987 c 0.14837,1.41408 0.229441,2.86958 0.229441,4.37595 0,1.13033 -0.05691,2.22537 -0.14056,3.30471 l -0.0041,0.0543 0.05168,0.0145 c 2.413921,0.68877 4.416663,1.34182 5.974313,1.95544 1.978046,0.77923 3.623299,1.91712 4.940784,3.41426 1.313006,1.49205 1.970421,3.42984 1.970421,5.826 0,3.05401 -1.133636,5.56024 -3.408577,7.53598 -2.213178,1.9141 -5.265819,2.87424 -9.168431,2.87424 -3.669467,0 -6.548102,-0.80734 -8.656836,-2.40089 l -0.04548,-0.0341 -0.04082,0.0398 c -1.887715,1.84821 -4.077933,3.42449 -6.572723,4.72787 l -0.09147,0.0476 0.08165,0.0636 c 1.218123,0.93954 2.580611,1.7654 4.099491,2.46858 l 5.29e-4,5.3e-4 5.29e-4,5.3e-4 c 3.320696,1.44903 7.06319,2.17248 11.225157,2.17248 4.343493,0 8.1178,-0.8447 11.319722,-2.53628 3.199823,-1.69048 5.618414,-3.89666 7.250721,-6.61717 1.63127,-2.71878 2.4474,-5.62162 2.4474,-8.70386 0,-3.98338 -0.90485,-7.13005 -2.722321,-9.4325 l -5.29e-4,-5.3e-4 c -1.811967,-2.35537 -3.988554,-4.07889 -6.52725,-5.16712 -2.533446,-1.14609 -5.877829,-2.29098 -10.034013,-3.43545 h -5.29e-4 c -0.782997,-0.2198 -1.387123,-0.41133 -2.093412,-0.61909 z m 0.147278,0.18139 c 0.667068,0.19725 1.254337,0.38171 2.006079,0.59272 v 5.3e-4 c 4.152169,1.14335 7.491558,2.28647 10.01541,3.42822 h 5.29e-4 l 5.3e-4,5.3e-4 c 2.518044,1.07916 4.67597,2.78717 6.476089,5.12733 v 5.3e-4 h 5.29e-4 c 1.794677,2.27326 2.694417,5.38771 2.694417,9.35137 0,3.0589 -0.80836,5.93578 -2.428283,8.63565 -1.618885,2.69814 -4.016901,4.88745 -7.199042,6.56859 -3.180043,1.68002 -6.93188,2.52077 -11.258227,2.52077 -4.146196,0 -7.869053,-0.72049 -11.170896,-2.1611 l -0.0011,-5.3e-4 c -1.476838,-0.68381 -2.798992,-1.48739 -3.988387,-2.39521 2.44924,-1.29056 4.606917,-2.84449 6.471438,-4.66276 2.13364,1.59338 5.025419,2.3983 8.688877,2.3983 3.924329,0 7.012575,-0.96712 9.254731,-2.90628 2.30061,-1.9979 3.454569,-4.54923 3.454569,-7.63623 0,-2.42041 -0.666864,-4.39502 -2.002978,-5.91333 -1.331632,-1.51322 -2.996827,-2.66376 -4.99246,-3.44992 -1.552133,-0.61144 -3.543691,-1.26075 -5.936072,-1.94458 0.08162,-1.0646 0.139009,-2.1449 0.139009,-3.2613 0,-1.47786 -0.08214,-2.90422 -0.224792,-4.29328 z"
       id="path6"
       sodipodi:nodetypes="sccccccccscccccccccsssccccccsccccssccccsscccssscscccccccccsssscccccccsccccccccsssscsccscssscsss" />
    <g
       id="g6">
      <text
         xml:space="preserve"
         id="text1-2"
         style="font-size:341.333px;font-family:Aboreto;-inkscape-font-specification:Aboreto;text-align:center;white-space:pre;shape-inside:url(#rect1-4);fill:#ffffff;stroke:#000000;stroke-width:0.5;stroke-opacity:0.197615"
         transform="matrix(0.26458333,0,0,0.26458333,-1.5013071,-0.01164153)"><tspan
           x="76.951938"
           y="653.1731"
           id="tspan2"><tspan
             style="font-family:Poppins;-inkscape-font-specification:Poppins"
             id="tspan1">D</tspan></tspan></text>
    </g>
  </g>
</svg>
